<svg width="107" height="35" viewBox="0 0 107 35" fill="none" xmlns="http://www.w3.org/2000/svg">
<path d="M105.634 15.0055C105.319 14.4754 104.872 14.0687 104.417 13.6621C102.946 12.3659 101.101 11.4437 99.2151 11.0261C99.0746 10.9971 98.9859 10.87 99.0007 10.7284C99.2003 8.95293 98.9822 7.13752 98.3278 5.44556C98.106 5.54722 97.8213 5.69245 97.4811 5.90304L97.4553 5.91756C98.1134 7.71482 98.2539 9.63915 97.8841 11.4691C97.8509 11.6325 97.9655 11.785 98.1319 11.8104C100.687 12.1662 103.105 13.4588 104.798 15.423C103.326 16.6648 101.574 17.5797 99.6995 18.0336C99.5664 18.0663 99.4739 18.1861 99.4813 18.3204C99.596 20.5134 99.082 22.7137 98.032 24.6489C104.436 26.9001 109.268 20.5098 105.634 15.0055Z" fill="#FFC62F"/>
<path d="M98.0984 3.90594C95.8726 4.85358 93.9131 6.5528 92.6967 8.57517C92.6228 8.69499 92.4749 8.74582 92.3418 8.68773C90.7187 7.96156 88.8738 7.59848 87.04 7.67836C87.0622 7.91799 87.1065 8.23387 87.1953 8.62237L87.199 8.64416C89.1474 8.58243 91.0478 9.05081 92.7115 9.95851C92.8594 10.0384 93.0443 9.9803 93.1182 9.83143C94.2385 7.55491 96.2535 5.69956 98.664 4.71561L98.7972 5.04239C99.4774 6.70893 99.7473 8.51708 99.6253 10.2925C99.6142 10.4269 99.703 10.5467 99.8361 10.583C101.544 11.0369 103.134 11.8502 104.498 12.9721L104.502 12.9685C104.85 13.2626 105.186 13.5639 105.504 13.8907C106.003 13.2771 106.38 12.4965 106.587 11.7812C108.55 6.63631 103.141 1.78917 98.0984 3.90594Z" fill="#FFC62F"/>
<path d="M96.5937 22.8262L96.6085 22.7899C96.5271 22.7354 96.4421 22.6809 96.3645 22.6228C94.856 21.5409 93.7025 20.1503 92.9371 18.5382C92.8669 18.3893 92.682 18.3312 92.5341 18.4075C90.2603 19.5911 87.517 19.9578 84.9844 19.3333C85.4355 17.478 86.2932 15.7315 87.5429 14.2756C87.6316 14.1703 87.6316 14.0214 87.5466 13.9161C86.149 12.2133 85.2432 10.1365 84.94 7.94708L84.9363 7.92529C84.293 8.09231 83.6201 8.40819 83.084 8.76401C83.084 8.76401 83.084 8.76401 83.0803 8.76401C76.9134 12.7506 80.4516 20.949 87.5059 20.5968C89.129 20.5968 90.6966 20.2701 92.1274 19.6674C92.2605 19.6129 92.4158 19.6601 92.4861 19.7835C93.3623 21.3049 94.6342 22.6628 96.1611 23.6576C96.2868 23.4543 96.4384 23.1784 96.5937 22.8262Z" fill="#FFC62F"/>
<path d="M103.282 14.6715L103.263 14.657C101.725 15.8334 99.9063 16.5486 98.0207 16.7737C97.8543 16.7955 97.7397 16.948 97.7693 17.1078C98.2093 19.5913 97.7323 22.2853 96.3274 24.4493L96.0353 24.2641C94.4788 23.2874 93.2032 22.013 92.2383 20.499C92.1643 20.3828 92.0201 20.3356 91.8944 20.3864C89.8203 21.167 87.5132 21.374 85.3171 20.9855C84.9917 27.1543 92.2715 30.3457 96.5566 25.6511C98.42 23.6687 99.0966 20.528 98.8674 17.8848C98.8563 17.7468 98.9561 17.6125 99.0966 17.5834C100.845 17.2276 102.561 16.4542 103.999 15.3251C103.829 15.1471 103.596 14.922 103.282 14.6715Z" fill="#FFC62F"/>
<path d="M96.6713 2.66069L96.6676 2.65705C92.316 -2.0267 84.7108 1.66947 85.5168 7.83097V7.8346C85.8089 10.0639 86.8256 12.2606 88.3156 13.9198C88.4117 14.0251 88.408 14.1849 88.3119 14.2866C87.114 15.5791 86.1934 17.1948 85.7054 18.934C85.942 18.9885 86.2562 19.0429 86.6481 19.0792L86.6851 19.0829C87.2286 17.242 88.2675 15.6045 89.6614 14.3301C89.7834 14.2176 89.7871 14.0288 89.6651 13.9126C89.5024 13.7601 89.3471 13.6003 89.1955 13.4333C87.6168 11.7522 86.6075 9.45757 86.43 7.13748C88.3526 6.97773 90.3454 7.25367 92.1163 7.96531C92.2457 8.01614 92.3899 7.97257 92.4639 7.86001C93.6766 6.03008 95.4032 4.54508 97.4256 3.58291C97.2111 3.25977 96.9486 2.94752 96.6713 2.66069Z" fill="#FFC62F"/>
<path d="M11.247 30.4726C14.9959 30.4726 16.4046 28.6318 16.4046 26.2173C16.4046 23.8028 14.8813 21.8059 11.247 21.8059H4.72505V30.4726H11.247ZM10.8957 18.6217C14.2565 18.6217 15.3878 16.7808 15.3878 14.6314C15.3878 12.4856 14.2528 10.9134 10.8551 10.9134H4.72505V18.6217H10.8957ZM0 33.0396V8.34645C0 7.751 0.491731 7.27173 1.09438 7.27173H12.1454C17.6912 7.27173 20.2312 10.2635 20.2312 13.7164C20.2312 16.8825 18.6155 19.228 15.5542 19.9687C15.5136 19.9796 15.5173 20.0304 15.5542 20.0377C18.8374 20.7094 21.1296 23.3599 21.1296 26.7946C21.1296 30.8212 18.1608 34.118 12.6519 34.118H1.09438C0.491731 34.1144 0 33.6315 0 33.0396Z" fill="#006B68"/>
<path d="M22.8748 33.0396V7.27173H26.5054C27.1118 7.27173 27.5998 7.75463 27.5998 8.34645V34.1144H23.9691C23.3665 34.1144 22.8748 33.6315 22.8748 33.0396Z" fill="#006B68"/>
<path d="M40.9282 30.4726C46.0045 30.4726 48.5445 27.1359 48.5445 20.6549C48.5445 14.0977 45.8898 10.9134 40.8099 10.9134H34.9904V30.4726H40.9282ZM30.2654 34.1144V8.34645C30.2654 7.751 30.7571 7.27173 31.3598 7.27173H41.749C48.9733 7.27173 53.4655 12.3331 53.4655 20.5787C53.4655 28.7843 49.1693 34.1144 41.9412 34.1144H30.2654Z" fill="#006B68"/>
<path d="M68.1731 34.1144H64.0322C62.2242 34.1144 61.5144 33.5479 60.9228 31.9395L52.2713 7.27173H56.2051C56.8928 7.29351 57.5214 7.70743 57.7617 8.37187L64.339 27.6333C64.572 28.3995 64.8086 29.2454 65.0045 30.1277C65.1598 29.2854 65.3927 28.4394 65.67 27.6333L71.8481 9.64265C72.4508 8.01605 73.6117 7.27173 75.024 7.27173H79.7417C79.8045 7.27536 79.8637 7.3153 79.8822 7.38065C79.9783 7.73647 79.7158 7.96158 79.4052 8.17217C78.9431 8.48442 78.6214 8.62602 78.1962 8.93827C77.0538 9.78062 76.392 11.1422 75.8892 12.3803C75.6747 12.9031 75.4862 13.4405 75.2939 13.9742L68.1731 34.1144Z" fill="#006B68"/>
</svg>
